<svg id="Group_11063" data-name="Group 11063" xmlns="http://www.w3.org/2000/svg" xmlns:xlink="http://www.w3.org/1999/xlink" width="123" height="97.938" viewBox="0 0 123 97.938">
  <defs>
    <clipPath id="clip-path">
      <rect id="Rectangle_1579" data-name="Rectangle 1579" width="123" height="97.938" fill="none"/>
    </clipPath>
    <clipPath id="clip-path-2">
      <path id="Path_9747" data-name="Path 9747" d="M51.036,0c-3.012.051-6.374,1.762-8.705,3.046A40.242,40.242,0,0,0,36.221,7.3c.789,1.081,1.531,2.227,2.214,3.362a31.982,31.982,0,0,1,9.64-5.922,11.912,11.912,0,0,1,3.574-.678c3.736-.156.976,4.411.491,5.229A46.343,46.343,0,0,1,45.5,17.361c-.68.712-1.378,1.413-2.088,2.092q1.03,1.7,2.138,3.336c1.274-1.188,2.523-2.406,3.733-3.67C53.106,15.134,63.208,3.51,53.152.29A6.421,6.421,0,0,0,51.305,0Z" transform="translate(-36.221)" fill="none"/>
    </clipPath>
    <linearGradient id="linear-gradient" x1="-1.637" y1="3.165" x2="-1.588" y2="3.165" gradientUnits="objectBoundingBox">
      <stop offset="0" stop-color="#ffc600"/>
      <stop offset="0.005" stop-color="#ffc600"/>
      <stop offset="0.97" stop-color="#fa9400"/>
      <stop offset="1" stop-color="#fa9400"/>
    </linearGradient>
    <clipPath id="clip-path-3">
      <path id="Path_9748" data-name="Path 9748" d="M52.683,14.873a46.085,46.085,0,0,0-8.307,5.967c.339.42.688.839,1.041,1.254.49.574,1,1.17,1.519,1.766a41.3,41.3,0,0,1,12.9-7.9c5.937-2.106,13.233.111,11.149,7.544-1.638,5.848-8.8,8.548-14.25,7.362-3.953-.857-7.125-3.966-9.8-7.006q-1.494,1.276-2.945,2.614c5.336,5.9,11.969,10.263,20.343,7.977,6.859-1.875,13.488-10.061,10.292-17.29-1.926-4.363-5.561-5.892-9.566-5.892-4.246,0-8.907,1.721-12.377,3.6" transform="translate(-43.991 -11.269)" fill="none"/>
    </clipPath>
    <linearGradient id="linear-gradient-2" x1="-1.981" y1="2.824" x2="-1.935" y2="2.824" gradientUnits="objectBoundingBox">
      <stop offset="0" stop-color="#ffc600"/>
      <stop offset="0.005" stop-color="#ffc600"/>
      <stop offset="0.833" stop-color="#fc9f00"/>
      <stop offset="0.959" stop-color="#e98b03"/>
      <stop offset="1" stop-color="#e98b03"/>
    </linearGradient>
    <clipPath id="clip-path-4">
      <path id="Path_9749" data-name="Path 9749" d="M37.287,20.535c-3.5,3.137-8,7.021-8.595,12.02-.381,3.136,1.077,5.523,4.185,6.288,4.079,1,8.48-2.375,11.376-4.762,3.429-2.821,6.612-6,9.9-9.018-.589.541-2.975-2.56-2.518-2.993-4.13,3.9-8.09,8-12.783,11.171a10.647,10.647,0,0,1-4.541,1.767c-3.513.438-.894-4.263-.49-5,1.428-2.619,4.1-4.7,6.26-6.682,2.469-2.255,5-4.426,7.491-6.644-.291.261-2.523-2.932-2.156-3.256-2.679,2.4-5.449,4.713-8.128,7.11" transform="translate(-28.633 -13.425)" fill="none"/>
    </clipPath>
    <linearGradient id="linear-gradient-3" x1="-1.143" y1="2.207" x2="-1.098" y2="2.207" gradientUnits="objectBoundingBox">
      <stop offset="0" stop-color="#ffc600"/>
      <stop offset="0.005" stop-color="#ffc600"/>
      <stop offset="0.833" stop-color="#ffb100"/>
      <stop offset="0.921" stop-color="#fa9400"/>
      <stop offset="1" stop-color="#fa9400"/>
    </linearGradient>
    <clipPath id="clip-path-5">
      <path id="Path_9750" data-name="Path 9750" d="M17.161,31.422C13.592,26.587,22.918,19.144,26,16.731c4.4-3.453,8.548-7.186,13.1-10.464a1.809,1.809,0,0,0,.189-.152,1.861,1.861,0,0,0,.21-.156c3.349-2.823,6.544-.213,9.1,3.379-1.684,1.539-3.314,3.116-4.915,4.615-3.723,3.495-7.418,7.034-11.006,10.668-2.315,2.35-8.073,8.444-12.364,8.444a3.743,3.743,0,0,1-3.147-1.643m19.7-28.39c-4,2.892-7.754,6.043-11.527,9.222-4.509,3.794-8.71,6.855-11.381,12.278-3.359,6.8,2.1,15.708,10,11.76a45.43,45.43,0,0,0,11.51-8.874q6.453-6.468,13.165-12.688,1.042-.968,2.111-1.949a37.3,37.3,0,0,0-2.148-3.442c.94-.854,1.893-1.7,2.868-2.5C48.983,3.464,45.981.712,42.478.712a8.858,8.858,0,0,0-5.616,2.32" transform="translate(-12.945 -0.712)" fill="none"/>
    </clipPath>
    <linearGradient id="linear-gradient-4" x1="-0.197" y1="1.862" x2="-0.167" y2="1.862" xlink:href="#linear-gradient"/>
    <clipPath id="clip-path-6">
      <path id="Path_9751" data-name="Path 9751" d="M17.161,31.422C13.592,26.587,22.918,19.144,26,16.731c4.4-3.453,8.548-7.186,13.1-10.464a1.809,1.809,0,0,0,.189-.152,1.861,1.861,0,0,0,.21-.156c3.349-2.823,6.544-.213,9.1,3.379-1.684,1.539-3.314,3.116-4.915,4.615-3.723,3.495-7.418,7.034-11.006,10.668-2.315,2.35-8.073,8.444-12.364,8.444a3.743,3.743,0,0,1-3.147-1.643m19.7-28.39c-4,2.892-7.754,6.043-11.527,9.222-4.509,3.794-8.71,6.855-11.381,12.278-3.359,6.8,2.1,15.708,10,11.76a45.43,45.43,0,0,0,11.51-8.874q6.453-6.468,13.165-12.688,1.042-.968,2.111-1.949c1.1,1.949,1.982,3.8,2.59,4.931.217.4.445.793.669,1.191.366-.379.731-.756,1.077-1.15.587-.675,1.142-1.368,1.658-2.088-.237-.429-.48-.852-.713-1.286-.692-1.289-1.476-2.73-2.346-4.18-.683-1.135-1.425-2.282-2.214-3.362C48.983,3.464,45.98.712,42.478.712a8.858,8.858,0,0,0-5.616,2.32" transform="translate(-12.945 -0.712)" fill="none"/>
    </clipPath>
    <linearGradient id="linear-gradient-5" x1="-0.206" y1="1.848" x2="-0.179" y2="1.848" xlink:href="#linear-gradient-2"/>
    <clipPath id="clip-path-7">
      <path id="Path_9752" data-name="Path 9752" d="M60.989,32.144c-3.94-.857-7.1-3.966-9.768-7.006a41.139,41.139,0,0,1,12.859-7.9c5.916-2.106,13.188.111,11.111,7.544-1.378,4.943-6.7,7.637-11.586,7.637a12.279,12.279,0,0,1-2.616-.275m-23.4-19.354c.261.435,1.686,2.891,1.959,3.324.688,1.105,1.413,2.191,2.156,3.256,1.286,1.843,2.641,3.63,4.062,5.388.376.473.761.942,1.148,1.41.447.538.9,1.067,1.37,1.584,5.318,5.9,11.927,10.263,20.274,7.977C75.4,33.855,82,25.67,78.817,18.44c-3.955-8.993-15.151-5.945-21.867-2.288a46.064,46.064,0,0,0-8.28,5.967c-1.428-1.757-2.763-3.573-4.013-5.429q-1.109-1.643-2.138-3.336c-.344-.563-1.991-3.467-2.32-4.038-.655.852-2.388,3.227-2.608,3.475" transform="translate(-37.591 -9.316)" fill="none"/>
    </clipPath>
    <linearGradient id="linear-gradient-6" x1="-1.401" y1="2.874" x2="-1.363" y2="2.874" xlink:href="#linear-gradient-2"/>
    <clipPath id="clip-path-8">
      <path id="Path_9753" data-name="Path 9753" d="M52.566,14.873a46.882,46.882,0,0,0-8.28,5.967c.892.973,1.661,2.049,2.552,3.02A42.191,42.191,0,0,1,59.7,15.96c5.916-2.106,13.188.111,11.111,7.544-1.271,4.56-5.892,7.2-10.438,7.589.806,1.231,1.615,2.462,2.452,3.67.448-.084.9-.187,1.355-.311,6.837-1.875,13.443-10.061,10.256-17.29C72.514,12.8,68.89,11.269,64.9,11.269c-4.233,0-8.878,1.721-12.336,3.6" transform="translate(-44.286 -11.269)" fill="none"/>
    </clipPath>
    <linearGradient id="linear-gradient-7" x1="-1.71" y1="2.223" x2="-1.669" y2="2.223" xlink:href="#linear-gradient-2"/>
    <clipPath id="clip-path-9">
      <path id="Path_9754" data-name="Path 9754" d="M32.725,8.631a27.042,27.042,0,0,1,1.812,2.181c.222.309.468.6.71.887.146-.132.286-.266.432-.4q1.042-.968,2.111-1.949l.043.074.02-.025a29.279,29.279,0,0,0-2.265-3.438c-.973.887-1.923,1.785-2.863,2.674" transform="translate(-32.725 -5.957)" fill="none"/>
    </clipPath>
    <linearGradient id="linear-gradient-8" x1="-6.978" y1="11.592" x2="-6.759" y2="11.592" xlink:href="#linear-gradient"/>
  </defs>
  <g id="Group_11046" data-name="Group 11046" transform="translate(0 0)">
    <g id="Group_11045" data-name="Group 11045" clip-path="url(#clip-path)">
      <path id="Path_9742" data-name="Path 9742" d="M13.183,64.514C4.608,64.514.213,59.583,0,49.83c0-9.7,4.34-14.578,13.077-14.74,6.857,0,10.933,3.053,12.165,9.218H17.47a4.642,4.642,0,0,0-4.608-2.947c-3.751,0-5.628,2.839-5.628,8.469s1.984,8.467,5.949,8.413a5.566,5.566,0,0,0,4.287-2.035,3.289,3.289,0,0,1,2.413-1.019h5.36c-1.287,5.788-5.467,9.485-12.06,9.326" transform="translate(0 22.974)" fill="#fff"/>
      <path id="Path_9743" data-name="Path 9743" d="M44.027,52.39c0,4.88-1.233,8.093-3.75,9.649a16.509,16.509,0,0,1-8.363,2.2,14.283,14.283,0,0,1-8.039-2.413c-2.466-1.555-3.7-4.661-3.7-9.434V35.35h7.129V53.836c0,3.164,1.608,4.718,4.823,4.718S36.955,57,36.955,53.836V38.886c-.055-2.36,1.071-3.536,3.429-3.536h3.644Z" transform="translate(13.211 23.144)" fill="#fff"/>
      <path id="Path_9744" data-name="Path 9744" d="M51.825,58.725c3,0,4.5-.857,4.5-2.679,0-1.448-2.467-2.628-7.344-3.485-6.27-1.125-9.486-3.912-9.539-8.361,0-6.108,4.823-9,11.308-9.111q5.466,0,8.682,2.413a9.019,9.019,0,0,1,3.377,6.913h-4.5c-1.661-.051-2.732-.642-3.162-1.769-.482-1.233-1.929-1.928-4.287-1.928-2.787,0-4.18.75-4.18,2.2s1.822,2.573,5.52,3.27c4.823.965,7.986,2.2,9.539,3.644a7.039,7.039,0,0,1,1.982,5.039c0,6.966-5.466,9.539-12.97,9.539-3.966,0-6.966-.859-8.9-2.52-2.145-1.608-3.217-4.072-3.217-7.34h7.289c.161,3.106,2.414,4.178,5.9,4.178" transform="translate(25.298 22.973)" fill="#fff"/>
      <path id="Path_9745" data-name="Path 9745" d="M65.462,71.385q0,3.539-3.538,3.536H58.333V47.805c.374-8.469,4.771-12.65,13.291-12.65q13.185,0,13.185,14.31c0,9.647-3.751,14.631-11.308,14.9a8.848,8.848,0,0,1-8.039-4.395Zm6.056-13.4c3.857,0,5.841-2.732,6-8.2,0-5.732-2.037-8.575-6.109-8.575s-6,2.843-5.949,8.575c.213,5.467,2.2,8.2,6.056,8.2" transform="translate(38.192 23.016)" fill="#fff"/>
      <path id="Path_9746" data-name="Path 9746" d="M37.1,3.322c-4.085,2.944-7.918,6.156-11.768,9.4-4.509,3.8-8.707,6.857-11.379,12.278-3.357,6.809,2.1,15.71,10,11.763a45.46,45.46,0,0,0,11.509-8.874Q41.917,21.414,48.629,15.2c4.349-4.028,9.015-8.436,14.686-10.454a11.9,11.9,0,0,1,3.574-.677c3.736-.157.976,4.411.49,5.229a46.521,46.521,0,0,1-6.635,8.067c-4.107,4.292-8.767,8.007-13.185,11.965-3.5,3.132-7.994,7.019-8.6,12.018-.377,3.136,1.077,5.525,4.185,6.29,4.082,1,8.48-2.375,11.378-4.761,8.331-6.867,15.2-15.8,25.691-19.534,5.916-2.106,13.188.111,11.111,7.544-1.632,5.846-8.778,8.547-14.2,7.36-4.714-1.028-8.307-5.27-11.279-8.77A83.124,83.124,0,0,1,56.02,14.844C52.224,7.788,45.69-3.937,36.7,3.631c-1.951,1.643.859,4.421,2.793,2.793C45.6,1.282,51.192,14.2,53.331,18.176A85.131,85.131,0,0,0,63.053,32.27c5.543,6.665,12.563,12.045,21.642,9.558,6.837-1.871,13.445-10.056,10.259-17.292C91,15.55,79.8,18.593,73.085,22.252c-9.232,5.034-15.371,13.969-23.962,19.779a10.607,10.607,0,0,1-4.542,1.764c-3.515.442-.894-4.258-.488-5,1.426-2.618,4.094-4.7,6.258-6.678,4.741-4.339,9.723-8.348,14.176-13C68.343,15.135,78.445,3.511,68.389.29,64.962-.8,60.47,1.45,57.571,3.046c-5.154,2.839-9.644,7.378-13.893,11.371-3.723,3.5-7.42,7.038-11.007,10.671-2.962,3-11.562,12.144-15.508,6.8C13.593,27.052,22.919,19.611,26,17.2c4.407-3.453,8.55-7.19,13.1-10.466,2.045-1.473.076-4.9-1.994-3.41" transform="translate(8.476 0.001)" fill="#fa9400"/>
    </g>
  </g>
  <g id="Group_11048" data-name="Group 11048" transform="translate(59.935)">
    <g id="Group_11047" data-name="Group 11047" clip-path="url(#clip-path-2)">
      <rect id="Rectangle_1580" data-name="Rectangle 1580" width="34.368" height="32.518" transform="translate(-9.18 4.645) rotate(-26.837)" fill="url(#linear-gradient)"/>
    </g>
  </g>
  <g id="Group_11050" data-name="Group 11050" transform="translate(72.793 18.647)">
    <g id="Group_11049" data-name="Group 11049" clip-path="url(#clip-path-3)">
      <rect id="Rectangle_1581" data-name="Rectangle 1581" width="36.16" height="28.655" transform="translate(-2.48 0.244) rotate(-5.614)" fill="url(#linear-gradient-2)"/>
    </g>
  </g>
  <g id="Group_11052" data-name="Group 11052" transform="translate(47.38 22.215)">
    <g id="Group_11051" data-name="Group 11051" clip-path="url(#clip-path-4)">
      <rect id="Rectangle_1582" data-name="Rectangle 1582" width="36.499" height="36.619" transform="translate(-12.969 9.394) rotate(-36.602)" fill="url(#linear-gradient-3)"/>
    </g>
  </g>
  <g id="Group_11054" data-name="Group 11054" transform="translate(21.421 1.178)">
    <g id="Group_11053" data-name="Group 11053" clip-path="url(#clip-path-5)">
      <rect id="Rectangle_1583" data-name="Rectangle 1583" width="56.704" height="56.535" transform="translate(-21.799 16.249) rotate(-39.878)" fill="url(#linear-gradient-4)"/>
    </g>
  </g>
  <g id="Group_11056" data-name="Group 11056" transform="translate(21.421 1.178)">
    <g id="Group_11055" data-name="Group 11055" clip-path="url(#clip-path-6)">
      <rect id="Rectangle_1584" data-name="Rectangle 1584" width="59.665" height="57.201" transform="matrix(0.868, -0.496, 0.496, 0.868, -19.368, 9.714)" fill="url(#linear-gradient-5)"/>
    </g>
  </g>
  <g id="Group_11058" data-name="Group 11058" transform="translate(62.202 15.415)">
    <g id="Group_11057" data-name="Group 11057" clip-path="url(#clip-path-7)">
      <rect id="Rectangle_1585" data-name="Rectangle 1585" width="44.413" height="28.699" transform="translate(0 0)" fill="url(#linear-gradient-6)"/>
    </g>
  </g>
  <g id="Group_11060" data-name="Group 11060" transform="translate(73.281 18.647)">
    <g id="Group_11059" data-name="Group 11059" clip-path="url(#clip-path-8)">
      <rect id="Rectangle_1586" data-name="Rectangle 1586" width="40.7" height="39.197" transform="translate(-11.473 9.225) rotate(-38.801)" fill="url(#linear-gradient-7)"/>
    </g>
  </g>
  <g id="Group_11062" data-name="Group 11062" transform="translate(54.151 9.857)">
    <g id="Group_11061" data-name="Group 11061" clip-path="url(#clip-path-9)">
      <rect id="Rectangle_1587" data-name="Rectangle 1587" width="7.585" height="7.685" transform="matrix(0.784, -0.621, 0.621, 0.784, -2.794, 2.212)" fill="url(#linear-gradient-8)"/>
    </g>
  </g>
</svg>
